<svg version="1.1" xmlns="http://www.w3.org/2000/svg" viewBox="0 0 1049.1870670886556 485.9759776779876" width="2098.374134177311" height="971.9519553559752">
  <!-- svg-source:excalidraw -->
  
  <defs>
    <style class="style-fonts">
      @font-face {
        font-family: "Virgil";
        src: url("https://excalidraw.com/Virgil.woff2");
      }
      @font-face {
        font-family: "Cascadia";
        src: url("https://excalidraw.com/Cascadia.woff2");
      }
    </style>
  </defs>
  <rect x="0" y="0" width="1049.1870670886556" height="485.9759776779876" fill="#ffffff"></rect><g stroke-linecap="round" transform="translate(10 37.107099731508356) rotate(0 108 40)"><path d="M2.85 7.77 C2.85 7.77, 2.85 7.77, 2.85 7.77 M2.85 7.77 C2.85 7.77, 2.85 7.77, 2.85 7.77 M1.27 15.68 C4.42 12.06, 7.56 8.45, 12.43 2.85 M1.27 15.68 C5.1 11.28, 8.92 6.88, 12.43 2.85 M1.01 22.08 C7.58 14.52, 14.15 6.97, 20.04 0.19 M1.01 22.08 C6.87 15.34, 12.72 8.61, 20.04 0.19 M0.75 28.48 C8.28 19.81, 15.82 11.14, 25.68 -0.2 M0.75 28.48 C7.76 20.41, 14.77 12.35, 25.68 -0.2 M1.14 34.12 C11.38 22.35, 21.61 10.57, 30.67 0.16 M1.14 34.12 C11.86 21.8, 22.57 9.47, 30.67 0.16 M0.88 40.52 C13.71 25.76, 26.53 11.01, 36.31 -0.24 M0.88 40.52 C14.98 24.3, 29.07 8.09, 36.31 -0.24 M1.28 46.16 C12.28 33.51, 23.28 20.85, 41.3 0.12 M1.28 46.16 C16.26 28.92, 31.25 11.68, 41.3 0.12 M1.02 52.56 C15.16 36.29, 29.3 20.02, 46.94 -0.27 M1.02 52.56 C15.75 35.61, 30.48 18.67, 46.94 -0.27 M0.75 58.96 C17.81 39.33, 34.87 19.71, 51.93 0.09 M0.75 58.96 C16.17 41.22, 31.59 23.49, 51.93 0.09 M0.49 65.35 C18.86 44.23, 37.22 23.1, 56.91 0.45 M0.49 65.35 C18.21 44.97, 35.93 24.58, 56.91 0.45 M2.2 69.49 C21.19 47.64, 40.18 25.8, 62.56 0.05 M2.2 69.49 C19.56 49.51, 36.92 29.54, 62.56 0.05 M4.56 72.87 C19.64 55.52, 34.71 38.18, 67.54 0.41 M4.56 72.87 C28.35 45.5, 52.14 18.13, 67.54 0.41 M6.93 76.25 C26.83 53.35, 46.73 30.45, 73.19 0.02 M6.93 76.25 C31.05 48.49, 55.18 20.74, 73.19 0.02 M9.94 78.87 C24.49 62.14, 39.04 45.4, 78.17 0.38 M9.94 78.87 C33.66 51.58, 57.38 24.3, 78.17 0.38 M13.62 80.74 C38.99 51.55, 64.36 22.37, 83.82 -0.01 M13.62 80.74 C37.98 52.72, 62.34 24.69, 83.82 -0.01 M18.61 81.1 C36.14 60.93, 53.67 40.76, 88.8 0.35 M18.61 81.1 C46.38 49.15, 74.16 17.19, 88.8 0.35 M22.94 82.21 C41.35 61.04, 59.76 39.86, 94.45 -0.05 M22.94 82.21 C47.16 54.35, 71.38 26.49, 94.45 -0.05 M27.92 82.57 C48.73 58.64, 69.53 34.71, 99.43 0.31 M27.92 82.57 C51.5 55.46, 75.07 28.34, 99.43 0.31 M33.57 82.18 C57.69 54.43, 81.82 26.67, 105.08 -0.08 M33.57 82.18 C49.83 63.47, 66.09 44.77, 105.08 -0.08 M38.55 82.54 C61.26 56.42, 83.97 30.29, 110.06 0.28 M38.55 82.54 C59.52 58.42, 80.49 34.3, 110.06 0.28 M44.2 82.15 C61.29 62.48, 78.39 42.81, 115.71 -0.12 M44.2 82.15 C71.89 50.28, 99.59 18.42, 115.71 -0.12 M49.18 82.51 C67.03 61.98, 84.88 41.45, 120.69 0.24 M49.18 82.51 C68.21 60.62, 87.24 38.73, 120.69 0.24 M54.83 82.11 C82.69 50.06, 110.55 18.01, 126.34 -0.15 M54.83 82.11 C81.9 50.97, 108.97 19.82, 126.34 -0.15 M59.81 82.47 C77.4 62.24, 94.99 42, 131.32 0.21 M59.81 82.47 C85.83 52.54, 111.85 22.61, 131.32 0.21 M65.46 82.08 C87.26 57, 109.06 31.91, 136.97 -0.19 M65.46 82.08 C83.14 61.73, 100.82 41.39, 136.97 -0.19 M70.44 82.44 C85.1 65.58, 99.75 48.73, 141.95 0.17 M70.44 82.44 C94.62 54.63, 118.79 26.83, 141.95 0.17 M76.09 82.04 C96.83 58.18, 117.58 34.31, 147.6 -0.22 M76.09 82.04 C92.21 63.5, 108.32 44.96, 147.6 -0.22 M81.07 82.4 C99.91 60.73, 118.74 39.07, 152.58 0.14 M81.07 82.4 C100.82 59.69, 120.56 36.98, 152.58 0.14 M86.06 82.76 C110.55 54.59, 135.05 26.41, 158.23 -0.26 M86.06 82.76 C102.72 63.59, 119.39 44.43, 158.23 -0.26 M91.7 82.37 C112.99 57.88, 134.28 33.39, 163.21 0.1 M91.7 82.37 C113.27 57.56, 134.83 32.76, 163.21 0.1 M96.69 82.73 C113.57 63.31, 130.44 43.9, 168.2 0.46 M96.69 82.73 C122.98 52.49, 149.27 22.24, 168.2 0.46 M102.33 82.33 C118.29 63.98, 134.24 45.63, 173.84 0.07 M102.33 82.33 C121.9 59.83, 141.46 37.32, 173.84 0.07 M107.32 82.69 C125.35 61.95, 143.39 41.2, 178.83 0.43 M107.32 82.69 C123.44 64.15, 139.56 45.6, 178.83 0.43 M112.96 82.3 C133.98 58.12, 154.99 33.95, 184.48 0.04 M112.96 82.3 C133.53 58.64, 154.1 34.97, 184.48 0.04 M117.95 82.66 C135.78 62.15, 153.61 41.64, 189.46 0.4 M117.95 82.66 C145.13 51.39, 172.31 20.13, 189.46 0.4 M123.59 82.26 C138.14 65.53, 152.69 48.8, 195.11 0 M123.59 82.26 C150.4 51.43, 177.21 20.59, 195.11 0 M128.58 82.62 C155.1 52.11, 181.63 21.6, 198.78 1.87 M128.58 82.62 C149.17 58.94, 169.75 35.26, 198.78 1.87 M134.22 82.23 C160.69 51.79, 187.15 21.34, 203.11 2.98 M134.22 82.23 C148.17 66.19, 162.11 50.15, 203.11 2.98 M139.21 82.59 C164.95 52.99, 190.68 23.38, 207.44 4.1 M139.21 82.59 C153.71 65.91, 168.22 49.22, 207.44 4.1 M144.85 82.19 C165.44 58.51, 186.03 34.83, 211.77 5.21 M144.85 82.19 C169.85 53.45, 194.84 24.7, 211.77 5.21 M149.84 82.56 C167.58 62.15, 185.32 41.74, 214.14 8.59 M149.84 82.56 C167.3 62.47, 184.77 42.38, 214.14 8.59 M155.48 82.16 C178.69 55.47, 201.9 28.77, 215.84 12.73 M155.48 82.16 C175.22 59.46, 194.95 36.76, 215.84 12.73 M160.47 82.52 C177.12 63.37, 193.76 44.23, 217.55 16.86 M160.47 82.52 C182.72 56.92, 204.98 31.32, 217.55 16.86 M166.12 82.13 C179.63 66.57, 193.15 51.02, 217.29 23.26 M166.12 82.13 C178.29 68.12, 190.47 54.11, 217.29 23.26 M171.1 82.49 C186.52 64.75, 201.93 47.02, 217.68 28.9 M171.1 82.49 C188.47 62.51, 205.83 42.53, 217.68 28.9 M176.75 82.09 C190.39 66.39, 204.04 50.69, 217.42 35.3 M176.75 82.09 C189.65 67.25, 202.55 52.4, 217.42 35.3 M181.73 82.45 C192.19 70.43, 202.64 58.4, 217.82 40.94 M181.73 82.45 C189.38 73.66, 197.02 64.87, 217.82 40.94 M187.38 82.06 C194.2 74.2, 201.03 66.34, 217.55 47.34 M187.38 82.06 C196.79 71.23, 206.2 60.41, 217.55 47.34 M192.36 82.42 C201.38 72.04, 210.41 61.66, 217.95 52.98 M192.36 82.42 C202.19 71.11, 212.02 59.8, 217.95 52.98 M198.01 82.02 C203.58 75.61, 209.15 69.21, 216.37 60.89 M198.01 82.02 C201.76 77.7, 205.51 73.38, 216.37 60.89 M205.62 79.36 C208.31 76.26, 211.01 73.16, 214.8 68.8 M205.62 79.36 C208.86 75.63, 212.11 71.9, 214.8 68.8" stroke="#ced4da" stroke-width="0.5" fill="none"></path><path d="M20 0 M20 0 C85.53 0, 151.05 0, 196 0 M20 0 C75.21 0, 130.43 0, 196 0 M196 0 C209.33 0, 216 6.67, 216 20 M196 0 C209.33 0, 216 6.67, 216 20 M216 20 C216 30.97, 216 41.93, 216 60 M216 20 C216 31.34, 216 42.69, 216 60 M216 60 C216 73.33, 209.33 80, 196 80 M216 60 C216 73.33, 209.33 80, 196 80 M196 80 C145.62 80, 95.24 80, 20 80 M196 80 C142.85 80, 89.69 80, 20 80 M20 80 C6.67 80, 0 73.33, 0 60 M20 80 C6.67 80, 0 73.33, 0 60 M0 60 C0 46.35, 0 32.71, 0 20 M0 60 C0 49.47, 0 38.93, 0 20 M0 20 C0 6.67, 6.67 0, 20 0 M0 20 C0 6.67, 6.67 0, 20 0" stroke="#000000" stroke-width="1" fill="none"></path></g><g transform="translate(20.574012756347656 42.107099731508356) rotate(0 97.42598724365234 35)"><text x="97.42598724365234" y="0" font-family="Virgil, Segoe UI Emoji" font-size="28px" fill="#000000" text-anchor="middle" style="white-space: pre;" direction="ltr" dominant-baseline="text-before-edge">React文档爬取</text><text x="97.42598724365234" y="35" font-family="Virgil, Segoe UI Emoji" font-size="28px" fill="#000000" text-anchor="middle" style="white-space: pre;" direction="ltr" dominant-baseline="text-before-edge">（playwright）</text></g><g stroke-linecap="round" transform="translate(838.1870670886555 32.9759776779876) rotate(0 100.5 221.5)"><path d="M7.86 8.16 C7.86 8.16, 7.86 8.16, 7.86 8.16 M7.86 8.16 C7.86 8.16, 7.86 8.16, 7.86 8.16 M3.66 19.09 C9.13 12.8, 14.59 6.51, 18.1 2.48 M3.66 19.09 C7.47 14.7, 11.28 10.32, 18.1 2.48 M2.75 26.24 C7.95 20.25, 13.15 14.27, 25.05 0.58 M2.75 26.24 C10.8 16.97, 18.86 7.7, 25.05 0.58 M2.48 32.64 C11.56 22.19, 20.64 11.75, 30.7 0.18 M2.48 32.64 C13.54 19.92, 24.59 7.21, 30.7 0.18 M2.88 38.28 C14.77 24.6, 26.67 10.92, 34.37 2.05 M2.88 38.28 C11.61 28.23, 20.34 18.19, 34.37 2.05 M2.62 44.68 C13.61 32.03, 24.61 19.38, 39.36 2.41 M2.62 44.68 C10.36 35.77, 18.11 26.85, 39.36 2.41 M2.36 51.07 C15.28 36.21, 28.2 21.35, 45 2.02 M2.36 51.07 C13.16 38.64, 23.97 26.21, 45 2.02 M2.75 56.72 C20.53 36.26, 38.32 15.81, 49.99 2.38 M2.75 56.72 C13.64 44.19, 24.53 31.66, 49.99 2.38 M2.49 63.11 C14.79 48.96, 27.1 34.81, 55.63 1.98 M2.49 63.11 C20 42.97, 37.51 22.82, 55.63 1.98 M2.88 68.76 C23.53 45.01, 44.18 21.26, 60.62 2.34 M2.88 68.76 C25.75 42.45, 48.62 16.14, 60.62 2.34 M2.62 75.16 C26.46 47.73, 50.3 20.31, 66.26 1.95 M2.62 75.16 C23.71 50.89, 44.8 26.63, 66.26 1.95 M2.36 81.55 C22.07 58.88, 41.78 36.2, 71.25 2.31 M2.36 81.55 C29.14 50.75, 55.92 19.94, 71.25 2.31 M2.76 87.2 C20 67.36, 37.25 47.52, 76.89 1.91 M2.76 87.2 C30.24 55.58, 57.72 23.97, 76.89 1.91 M2.49 93.59 C29.84 62.14, 57.19 30.68, 81.88 2.27 M2.49 93.59 C28.35 63.85, 54.2 34.11, 81.88 2.27 M2.23 99.99 C27.4 71.04, 52.57 42.08, 87.52 1.88 M2.23 99.99 C31.66 66.14, 61.09 32.28, 87.52 1.88 M2.63 105.64 C34.46 69.02, 66.29 32.4, 92.51 2.24 M2.63 105.64 C25.99 78.76, 49.36 51.88, 92.51 2.24 M2.37 112.03 C34.76 74.77, 67.16 37.5, 97.49 2.6 M2.37 112.03 C25.01 85.98, 47.66 59.93, 97.49 2.6 M2.76 117.68 C30.44 85.84, 58.11 54, 103.14 2.21 M2.76 117.68 C30.93 85.27, 59.09 52.87, 103.14 2.21 M2.5 124.07 C38.05 83.18, 73.6 42.28, 108.12 2.57 M2.5 124.07 C25.65 97.44, 48.8 70.81, 108.12 2.57 M2.24 130.47 C36.68 90.85, 71.12 51.23, 113.77 2.17 M2.24 130.47 C25.95 103.19, 49.67 75.91, 113.77 2.17 M2.63 136.11 C42.1 90.72, 81.56 45.32, 118.76 2.53 M2.63 136.11 C42.57 90.18, 82.5 44.24, 118.76 2.53 M2.37 142.51 C50.22 87.47, 98.07 32.43, 124.4 2.14 M2.37 142.51 C41.04 98.02, 79.72 53.53, 124.4 2.14 M2.77 148.16 C52.92 90.46, 103.07 32.77, 129.39 2.5 M2.77 148.16 C34.87 111.22, 66.98 74.29, 129.39 2.5 M2.5 154.55 C42.71 108.3, 82.92 62.05, 135.03 2.1 M2.5 154.55 C54.24 95.04, 105.97 35.53, 135.03 2.1 M2.24 160.95 C35.32 122.9, 68.39 84.86, 140.02 2.46 M2.24 160.95 C40.2 117.28, 78.16 73.62, 140.02 2.46 M2.64 166.59 C54.05 107.45, 105.47 48.3, 145.66 2.07 M2.64 166.59 C40.64 122.88, 78.64 79.16, 145.66 2.07 M2.38 172.99 C61.04 105.51, 119.7 38.02, 150.65 2.43 M2.38 172.99 C50.27 117.9, 98.16 62.8, 150.65 2.43 M2.11 179.39 C50.67 123.54, 99.22 67.68, 155.63 2.79 M2.11 179.39 C49.97 124.34, 97.82 69.29, 155.63 2.79 M2.51 185.03 C46.3 134.66, 90.08 84.29, 161.28 2.39 M2.51 185.03 C65.26 112.85, 128.01 40.66, 161.28 2.39 M2.25 191.43 C46.31 140.74, 90.38 90.04, 166.26 2.75 M2.25 191.43 C56.87 128.6, 111.49 65.76, 166.26 2.75 M2.64 197.07 C50.45 142.08, 98.25 87.09, 171.91 2.36 M2.64 197.07 C49.59 143.07, 96.53 89.07, 171.91 2.36 M2.38 203.47 C63.82 132.8, 125.26 62.12, 177.55 1.96 M2.38 203.47 C49.72 149.02, 97.05 94.56, 177.55 1.96 M2.12 209.87 C57.44 146.23, 112.75 82.6, 182.54 2.32 M2.12 209.87 C45.49 159.98, 88.85 110.09, 182.54 2.32 M2.51 215.51 C45.78 165.75, 89.04 115.98, 186.21 4.19 M2.51 215.51 C57.6 152.14, 112.69 88.76, 186.21 4.19 M2.25 221.91 C45.11 172.6, 87.98 123.3, 189.89 6.06 M2.25 221.91 C66.3 148.23, 130.35 74.55, 189.89 6.06 M2.65 227.55 C47.53 175.92, 92.42 124.28, 193.56 7.93 M2.65 227.55 C66.5 154.09, 130.36 80.64, 193.56 7.93 M2.39 233.95 C44.4 185.62, 86.41 137.29, 195.92 11.31 M2.39 233.95 C64.94 161.99, 127.49 90.04, 195.92 11.31 M2.12 240.35 C41.51 195.04, 80.89 149.73, 198.29 14.69 M2.12 240.35 C65.37 167.6, 128.61 94.84, 198.29 14.69 M2.52 245.99 C48.09 193.57, 93.66 141.15, 199.99 18.82 M2.52 245.99 C64.69 174.47, 126.86 102.95, 199.99 18.82 M2.26 252.39 C46.53 201.45, 90.81 150.52, 201.04 23.71 M2.26 252.39 C71.44 172.81, 140.61 93.23, 201.04 23.71 M2.65 258.03 C66.24 184.88, 129.84 111.72, 203.41 27.09 M2.65 258.03 C69.11 181.58, 135.57 105.13, 203.41 27.09 M2.39 264.43 C68.7 188.14, 135.02 111.86, 203.14 33.49 M2.39 264.43 C68.96 187.85, 135.52 111.28, 203.14 33.49 M2.13 270.83 C64.66 198.9, 127.18 126.97, 202.88 39.89 M2.13 270.83 C76.93 184.78, 151.73 98.73, 202.88 39.89 M2.52 276.47 C81.2 185.96, 159.88 95.45, 203.28 45.53 M2.52 276.47 C68.64 200.41, 134.76 124.35, 203.28 45.53 M2.26 282.87 C70.57 204.29, 138.88 125.71, 203.02 51.93 M2.26 282.87 C67.75 207.54, 133.24 132.2, 203.02 51.93 M2 289.27 C45.16 239.62, 88.31 189.98, 202.75 58.33 M2 289.27 C48.88 235.34, 95.75 181.42, 202.75 58.33 M2.4 294.91 C66.16 221.56, 129.92 148.21, 203.15 63.97 M2.4 294.91 C55.49 233.83, 108.58 172.75, 203.15 63.97 M2.13 301.31 C51.51 244.5, 100.89 187.7, 202.89 70.37 M2.13 301.31 C56.76 238.47, 111.39 175.63, 202.89 70.37 M2.53 306.95 C52.13 249.89, 101.74 192.82, 203.28 76.01 M2.53 306.95 C71.99 227.05, 141.44 147.15, 203.28 76.01 M2.27 313.35 C56.57 250.88, 110.88 188.4, 203.02 82.41 M2.27 313.35 C64.34 241.94, 126.42 170.53, 203.02 82.41 M2.01 319.75 C66.51 245.55, 131.01 171.34, 202.76 88.81 M2.01 319.75 C65.29 246.94, 128.58 174.14, 202.76 88.81 M2.4 325.39 C65.28 253.05, 128.16 180.72, 203.15 94.45 M2.4 325.39 C71.62 245.76, 140.84 166.14, 203.15 94.45 M2.14 331.79 C46.68 280.55, 91.23 229.3, 202.89 100.85 M2.14 331.79 C42.83 284.98, 83.52 238.17, 202.89 100.85 M2.53 337.43 C70.13 259.67, 137.72 181.92, 202.63 107.24 M2.53 337.43 C45.51 288, 88.48 238.56, 202.63 107.24 M2.27 343.83 C46.35 293.12, 90.43 242.41, 203.03 112.89 M2.27 343.83 C47.38 291.93, 92.49 240.04, 203.03 112.89 M2.01 350.23 C71.67 270.09, 141.33 189.95, 202.76 119.28 M2.01 350.23 C60.42 283.03, 118.84 215.83, 202.76 119.28 M2.4 355.87 C57.45 292.55, 112.49 229.24, 203.16 124.93 M2.4 355.87 C59.34 290.37, 116.28 224.87, 203.16 124.93 M2.14 362.27 C58.88 296.99, 115.62 231.72, 202.9 131.33 M2.14 362.27 C78.67 274.23, 155.2 186.19, 202.9 131.33 M1.88 368.66 C69.04 291.41, 136.19 214.16, 202.64 137.72 M1.88 368.66 C55.62 306.85, 109.36 245.03, 202.64 137.72 M2.28 374.31 C67.64 299.11, 133.01 223.92, 203.03 143.37 M2.28 374.31 C48.29 321.37, 94.3 268.44, 203.03 143.37 M2.02 380.71 C49.9 325.62, 97.79 270.53, 202.77 149.76 M2.02 380.71 C72.5 299.63, 142.98 218.54, 202.77 149.76 M2.41 386.35 C81.88 294.93, 161.35 203.51, 203.16 155.41 M2.41 386.35 C45.5 336.78, 88.58 287.22, 203.16 155.41 M2.15 392.75 C44.95 343.51, 87.74 294.28, 202.9 161.81 M2.15 392.75 C61.16 324.86, 120.18 256.97, 202.9 161.81 M1.89 399.14 C52.55 340.86, 103.22 282.58, 202.64 168.2 M1.89 399.14 C52.69 340.71, 103.49 282.27, 202.64 168.2 M2.28 404.79 C77.47 318.29, 152.66 231.8, 203.04 173.85 M2.28 404.79 C71.02 325.71, 139.75 246.64, 203.04 173.85 M1.36 411.94 C80.57 320.83, 159.77 229.71, 202.77 180.24 M1.36 411.94 C60.99 343.35, 120.61 274.76, 202.77 180.24 M0.45 419.09 C46.6 366, 92.75 312.91, 203.17 185.89 M0.45 419.09 C67.01 342.51, 133.58 265.94, 203.17 185.89 M2.15 423.23 C73.54 341.1, 144.94 258.97, 202.91 192.28 M2.15 423.23 C48.54 369.87, 94.92 316.51, 202.91 192.28 M4.52 426.6 C77.18 343.01, 149.84 259.42, 202.65 198.68 M4.52 426.6 C77.79 342.31, 151.07 258.01, 202.65 198.68 M5.57 431.49 C48.15 382.5, 90.74 333.51, 203.04 204.33 M5.57 431.49 C80.9 344.83, 156.24 258.16, 203.04 204.33 M7.93 434.87 C81 350.81, 154.07 266.75, 202.78 210.72 M7.93 434.87 C80.16 351.78, 152.39 268.69, 202.78 210.72 M10.95 437.5 C66.44 373.67, 121.92 309.83, 203.17 216.37 M10.95 437.5 C50.69 391.77, 90.44 346.05, 203.17 216.37 M13.97 440.12 C75.33 369.53, 136.69 298.95, 202.91 222.76 M13.97 440.12 C74.57 370.41, 135.17 300.69, 202.91 222.76 M18.3 441.24 C60.5 392.69, 102.7 344.14, 202.65 229.16 M18.3 441.24 C55.56 398.37, 92.82 355.51, 202.65 229.16 M22.63 442.35 C72.66 384.79, 122.69 327.24, 203.05 234.81 M22.63 442.35 C94.03 360.22, 165.42 278.08, 203.05 234.81 M26.3 444.22 C84.51 377.26, 142.72 310.3, 202.78 241.2 M26.3 444.22 C96.68 363.27, 167.05 282.31, 202.78 241.2 M31.95 443.83 C97.55 368.36, 163.15 292.89, 203.18 246.85 M31.95 443.83 C76.02 393.12, 120.09 342.42, 203.18 246.85 M36.93 444.19 C74.08 401.45, 111.23 358.71, 202.92 253.24 M36.93 444.19 C80.73 393.8, 124.53 343.42, 202.92 253.24 M41.92 444.55 C103.26 373.98, 164.6 303.42, 202.66 259.64 M41.92 444.55 C98.71 379.22, 155.5 313.89, 202.66 259.64 M47.56 444.15 C107.03 375.75, 166.49 307.35, 203.05 265.28 M47.56 444.15 C78.75 408.28, 109.94 372.4, 203.05 265.28 M52.55 444.51 C97.83 392.42, 143.11 340.33, 202.79 271.68 M52.55 444.51 C85.17 406.99, 117.78 369.47, 202.79 271.68 M58.19 444.12 C89.54 408.06, 120.89 372, 203.18 277.33 M58.19 444.12 C94.13 402.77, 130.07 361.43, 203.18 277.33 M63.18 444.48 C113.49 386.6, 163.8 328.72, 202.92 283.72 M63.18 444.48 C114.64 385.28, 166.09 326.09, 202.92 283.72 M68.82 444.08 C118.98 386.38, 169.14 328.68, 202.66 290.12 M68.82 444.08 C119.78 385.46, 170.74 326.84, 202.66 290.12 M73.81 444.44 C107.96 405.16, 142.1 365.89, 203.05 295.76 M73.81 444.44 C101.23 412.9, 128.65 381.35, 203.05 295.76 M79.45 444.05 C109.9 409.02, 140.35 373.99, 202.79 302.16 M79.45 444.05 C105.37 414.23, 131.29 384.41, 202.79 302.16 M84.44 444.41 C121.2 402.12, 157.97 359.83, 203.19 307.8 M84.44 444.41 C124.85 397.92, 165.26 351.44, 203.19 307.8 M90.08 444.01 C119.45 410.23, 148.81 376.45, 202.93 314.2 M90.08 444.01 C122.01 407.29, 153.93 370.57, 202.93 314.2 M95.07 444.37 C125.31 409.59, 155.55 374.81, 202.67 320.6 M95.07 444.37 C119.81 415.92, 144.54 387.46, 202.67 320.6 M100.06 444.73 C139.37 399.51, 178.68 354.29, 203.06 326.24 M100.06 444.73 C139.38 399.5, 178.7 354.26, 203.06 326.24 M105.7 444.34 C139.92 404.98, 174.13 365.62, 202.8 332.64 M105.7 444.34 C139.13 405.88, 172.56 367.43, 202.8 332.64 M110.69 444.7 C130.77 421.6, 150.85 398.5, 203.19 338.28 M110.69 444.7 C131.55 420.7, 152.41 396.7, 203.19 338.28 M116.33 444.3 C149.8 405.8, 183.28 367.29, 202.93 344.68 M116.33 444.3 C136.48 421.13, 156.62 397.96, 202.93 344.68 M121.32 444.66 C146.65 415.52, 171.98 386.38, 202.67 351.08 M121.32 444.66 C151.32 410.15, 181.32 375.64, 202.67 351.08 M126.96 444.27 C144.88 423.66, 162.8 403.04, 203.06 356.72 M126.96 444.27 C144.47 424.13, 161.97 403.99, 203.06 356.72 M131.95 444.63 C149.57 424.36, 167.18 404.1, 202.8 363.12 M131.95 444.63 C153.36 420, 174.77 395.37, 202.8 363.12 M137.59 444.23 C153.35 426.11, 169.11 407.98, 203.2 368.76 M137.59 444.23 C161.05 417.25, 184.51 390.26, 203.2 368.76 M142.58 444.6 C163.82 420.16, 185.06 395.73, 202.94 375.16 M142.58 444.6 C163.84 420.14, 185.1 395.68, 202.94 375.16 M148.22 444.2 C166.24 423.47, 184.26 402.75, 202.67 381.56 M148.22 444.2 C160.33 430.27, 172.43 416.35, 202.67 381.56 M153.21 444.56 C172.32 422.58, 191.43 400.6, 203.07 387.2 M153.21 444.56 C172.23 422.68, 191.25 400.8, 203.07 387.2 M158.2 444.92 C172.77 428.16, 187.34 411.39, 202.81 393.6 M158.2 444.92 C172.35 428.64, 186.49 412.37, 202.81 393.6 M163.84 444.53 C173.44 433.48, 183.04 422.43, 203.2 399.24 M163.84 444.53 C175.18 431.48, 186.53 418.43, 203.2 399.24 M170.14 443.38 C177.87 434.48, 185.61 425.58, 202.94 405.64 M170.14 443.38 C180.67 431.26, 191.2 419.15, 202.94 405.64 M175.78 442.98 C183.16 434.5, 190.53 426.01, 202.68 412.04 M175.78 442.98 C184.03 433.49, 192.29 423.99, 202.68 412.04 M179.46 444.85 C187.39 435.73, 195.32 426.61, 201.76 419.19 M179.46 444.85 C188.35 434.62, 197.24 424.39, 201.76 419.19" stroke="#40c057" stroke-width="0.5" fill="none"></path><path d="M32 0 M32 0 C80.41 0, 128.83 0, 169 0 M32 0 C74.15 0, 116.31 0, 169 0 M169 0 C190.33 0, 201 10.67, 201 32 M169 0 C190.33 0, 201 10.67, 201 32 M201 32 C201 134.44, 201 236.89, 201 411 M201 32 C201 152.34, 201 272.67, 201 411 M201 411 C201 432.33, 190.33 443, 169 443 M201 411 C201 432.33, 190.33 443, 169 443 M169 443 C139.56 443, 110.12 443, 32 443 M169 443 C124.6 443, 80.2 443, 32 443 M32 443 C10.67 443, 0 432.33, 0 411 M32 443 C10.67 443, 0 432.33, 0 411 M0 411 C0 330.44, 0 249.87, 0 32 M0 411 C0 299.32, 0 187.63, 0 32 M0 32 C0 10.67, 10.67 0, 32 0 M0 32 C0 10.67, 10.67 0, 32 0" stroke="#000000" stroke-width="1" fill="none"></path></g><g transform="translate(847.1830921741047 219.4759776779876) rotate(0 91.50397491455078 35)"><text x="91.50397491455078" y="0" font-family="Virgil, Segoe UI Emoji" font-size="28px" fill="#000000" text-anchor="middle" style="white-space: pre;" direction="ltr" dominant-baseline="text-before-edge">向量数据库</text><text x="91.50397491455078" y="35" font-family="Virgil, Segoe UI Emoji" font-size="28px" fill="#000000" text-anchor="middle" style="white-space: pre;" direction="ltr" dominant-baseline="text-before-edge">（supabase）</text></g><g stroke-linecap="round" transform="translate(14.83266154303044 344.88424815799755) rotate(0 115.5 57.5)"><path d="M7 7.41 C7 7.41, 7 7.41, 7 7.41 M7 7.41 C7 7.41, 7 7.41, 7 7.41 M3.45 17.58 C8.01 12.34, 12.56 7.1, 16.58 2.48 M3.45 17.58 C6.13 14.51, 8.8 11.43, 16.58 2.48 M3.19 23.98 C9.35 16.9, 15.5 9.82, 22.88 1.33 M3.19 23.98 C9.94 16.21, 16.7 8.44, 22.88 1.33 M2.93 30.37 C8.46 24.02, 13.98 17.67, 29.17 0.19 M2.93 30.37 C9.16 23.21, 15.4 16.04, 29.17 0.19 M2.67 36.77 C14.79 22.83, 26.91 8.89, 34.16 0.55 M2.67 36.77 C10.02 28.32, 17.37 19.86, 34.16 0.55 M3.07 42.41 C17.22 26.13, 31.38 9.85, 39.8 0.15 M3.07 42.41 C14.49 29.27, 25.92 16.12, 39.8 0.15 M2.8 48.81 C13.87 36.08, 24.94 23.34, 44.79 0.51 M2.8 48.81 C12.77 37.35, 22.74 25.88, 44.79 0.51 M3.2 54.46 C20.71 34.31, 38.23 14.16, 50.43 0.12 M3.2 54.46 C13.56 42.54, 23.92 30.62, 50.43 0.12 M2.94 60.85 C16.25 45.54, 29.56 30.22, 55.42 0.48 M2.94 60.85 C16.42 45.34, 29.91 29.83, 55.42 0.48 M2.68 67.25 C17.39 50.32, 32.11 33.39, 61.06 0.08 M2.68 67.25 C25.82 40.63, 48.96 14, 61.06 0.08 M3.07 72.89 C27.98 44.24, 52.89 15.58, 66.05 0.44 M3.07 72.89 C20.9 52.38, 38.73 31.87, 66.05 0.44 M2.81 79.29 C16.6 63.42, 30.4 47.56, 71.69 0.05 M2.81 79.29 C17.63 62.24, 32.45 45.19, 71.69 0.05 M3.2 84.94 C30.08 54.01, 56.96 23.09, 76.68 0.41 M3.2 84.94 C24.95 59.92, 46.7 34.9, 76.68 0.41 M0.97 93.6 C31.26 58.76, 61.54 23.92, 82.32 0.01 M0.97 93.6 C24.39 66.66, 47.8 39.72, 82.32 0.01 M2.02 98.49 C34.17 61.5, 66.32 24.52, 87.31 0.37 M2.02 98.49 C33.13 62.7, 64.24 26.92, 87.31 0.37 M5.04 101.11 C23.61 79.76, 42.17 58.4, 92.95 -0.02 M5.04 101.11 C37.19 64.13, 69.33 27.16, 92.95 -0.02 M6.09 106 C31.57 76.7, 57.04 47.39, 97.94 0.34 M6.09 106 C38.02 69.27, 69.94 32.55, 97.94 0.34 M8.46 109.38 C41.34 71.54, 74.23 33.71, 103.58 -0.06 M8.46 109.38 C31.17 83.25, 53.89 57.12, 103.58 -0.06 M12.13 111.25 C36.37 83.36, 60.61 55.48, 108.57 0.3 M12.13 111.25 C49.92 67.78, 87.7 24.31, 108.57 0.3 M15.81 113.12 C44.23 80.41, 72.66 47.71, 113.56 0.66 M15.81 113.12 C38.94 86.51, 62.07 59.9, 113.56 0.66 M18.83 115.74 C50.87 78.87, 82.92 42.01, 119.2 0.27 M18.83 115.74 C42.29 88.74, 65.76 61.75, 119.2 0.27 M23.81 116.1 C58.66 76.01, 93.51 35.92, 124.19 0.63 M23.81 116.1 C56.69 78.28, 89.57 40.46, 124.19 0.63 M29.46 115.71 C53.28 88.3, 77.1 60.9, 129.83 0.24 M29.46 115.71 C59.46 81.19, 89.47 46.67, 129.83 0.24 M35.1 115.31 C65.17 80.72, 95.24 46.13, 134.82 0.6 M35.1 115.31 C56.93 90.19, 78.77 65.07, 134.82 0.6 M40.09 115.67 C80.01 69.75, 119.92 23.83, 140.46 0.2 M40.09 115.67 C60.33 92.38, 80.58 69.09, 140.46 0.2 M45.73 115.28 C78.29 77.82, 110.85 40.36, 145.45 0.56 M45.73 115.28 C71.4 85.75, 97.07 56.21, 145.45 0.56 M50.72 115.64 C83.69 77.71, 116.66 39.78, 151.09 0.17 M50.72 115.64 C75.38 87.27, 100.04 58.9, 151.09 0.17 M55.7 116 C83.87 83.59, 112.04 51.18, 156.08 0.53 M55.7 116 C88.67 78.07, 121.65 40.14, 156.08 0.53 M61.35 115.6 C100.86 70.14, 140.38 24.69, 161.72 0.13 M61.35 115.6 C93.81 78.26, 126.27 40.91, 161.72 0.13 M66.33 115.96 C87.26 91.89, 108.19 67.82, 166.71 0.49 M66.33 115.96 C102.14 74.77, 137.95 33.57, 166.71 0.49 M71.98 115.57 C101.42 81.7, 130.85 47.84, 172.35 0.1 M71.98 115.57 C93.72 90.56, 115.46 65.55, 172.35 0.1 M76.96 115.93 C101.1 88.16, 125.23 60.4, 177.34 0.46 M76.96 115.93 C97.64 92.14, 118.31 68.36, 177.34 0.46 M82.61 115.53 C119.07 73.59, 155.53 31.65, 182.98 0.06 M82.61 115.53 C112.31 81.36, 142.02 47.18, 182.98 0.06 M87.59 115.89 C116.99 82.07, 146.39 48.25, 187.97 0.42 M87.59 115.89 C125.62 72.15, 163.65 28.4, 187.97 0.42 M93.24 115.5 C120.88 83.7, 148.52 51.91, 193.61 0.03 M93.24 115.5 C115.45 89.95, 137.66 64.4, 193.61 0.03 M98.22 115.86 C135.18 73.34, 172.14 30.83, 198.6 0.39 M98.22 115.86 C130.07 79.22, 161.91 42.59, 198.6 0.39 M103.87 115.46 C137.52 76.75, 171.17 38.04, 203.59 0.75 M103.87 115.46 C127.94 87.77, 152.01 60.08, 203.59 0.75 M108.85 115.82 C134.41 86.43, 159.96 57.03, 209.23 0.35 M108.85 115.82 C139.17 80.95, 169.49 46.07, 209.23 0.35 M114.5 115.43 C153.45 70.62, 192.41 25.8, 213.56 1.47 M114.5 115.43 C143.65 81.89, 172.8 48.36, 213.56 1.47 M119.48 115.79 C141.6 90.35, 163.71 64.91, 217.24 3.34 M119.48 115.79 C154.01 76.08, 188.53 36.36, 217.24 3.34 M125.13 115.4 C156 79.87, 186.88 44.35, 220.91 5.21 M125.13 115.4 C154.52 81.58, 183.91 47.77, 220.91 5.21 M130.11 115.76 C162.32 78.7, 194.53 41.65, 223.93 7.83 M130.11 115.76 C161.04 80.18, 191.96 44.6, 223.93 7.83 M135.76 115.36 C166.8 79.64, 197.85 43.93, 226.95 10.46 M135.76 115.36 C162.67 84.4, 189.59 53.43, 226.95 10.46 M140.74 115.72 C171.91 79.87, 203.07 44.02, 229.31 13.84 M140.74 115.72 C161.07 92.33, 181.4 68.95, 229.31 13.84 M146.39 115.33 C171.7 86.21, 197 57.1, 231.02 17.97 M146.39 115.33 C168.76 89.59, 191.13 63.85, 231.02 17.97 M151.37 115.69 C182.35 80.05, 213.33 44.41, 232.07 22.86 M151.37 115.69 C174.77 88.77, 198.17 61.85, 232.07 22.86 M157.02 115.29 C185.86 82.12, 214.7 48.94, 231.81 29.25 M157.02 115.29 C180.09 88.75, 203.17 62.2, 231.81 29.25 M162 115.65 C180.07 94.87, 198.14 74.08, 232.2 34.9 M162 115.65 C182.16 92.46, 202.32 69.27, 232.2 34.9 M166.99 116.01 C181.51 99.31, 196.03 82.61, 231.94 41.3 M166.99 116.01 C187.19 92.78, 207.39 69.54, 231.94 41.3 M172.63 115.62 C194.85 90.07, 217.06 64.51, 231.68 47.69 M172.63 115.62 C186.59 99.56, 200.54 83.51, 231.68 47.69 M177.62 115.98 C197.89 92.66, 218.16 69.35, 232.07 53.34 M177.62 115.98 C190.9 100.7, 204.19 85.42, 232.07 53.34 M183.26 115.58 C194.44 102.73, 205.61 89.88, 231.81 59.73 M183.26 115.58 C197.43 99.28, 211.6 82.98, 231.81 59.73 M188.25 115.94 C198.22 104.47, 208.2 93, 232.21 65.38 M188.25 115.94 C200.07 102.35, 211.88 88.76, 232.21 65.38 M193.89 115.55 C205.12 102.64, 216.34 89.73, 231.94 71.78 M193.89 115.55 C203.3 104.73, 212.7 93.92, 231.94 71.78 M198.88 115.91 C209.55 103.64, 220.22 91.36, 232.34 77.42 M198.88 115.91 C206.77 106.83, 214.67 97.75, 232.34 77.42 M203.87 116.27 C213.24 105.48, 222.62 94.7, 232.08 83.82 M203.87 116.27 C210.48 108.66, 217.1 101.05, 232.08 83.82 M210.17 115.12 C215.11 109.44, 220.05 103.75, 233.13 88.7 M210.17 115.12 C219 104.95, 227.84 94.79, 233.13 88.7 M216.47 113.97 C220.27 109.59, 224.08 105.22, 229.59 98.88 M216.47 113.97 C219.42 110.57, 222.38 107.16, 229.59 98.88" stroke="#ced4da" stroke-width="0.5" fill="none"></path><path d="M28.75 0 M28.75 0 C66.75 0, 104.76 0, 202.25 0 M28.75 0 C71.1 0, 113.46 0, 202.25 0 M202.25 0 C221.42 0, 231 9.58, 231 28.75 M202.25 0 C221.42 0, 231 9.58, 231 28.75 M231 28.75 C231 42.37, 231 55.98, 231 86.25 M231 28.75 C231 48.88, 231 69, 231 86.25 M231 86.25 C231 105.42, 221.42 115, 202.25 115 M231 86.25 C231 105.42, 221.42 115, 202.25 115 M202.25 115 C139.79 115, 77.33 115, 28.75 115 M202.25 115 C141.63 115, 81 115, 28.75 115 M28.75 115 C9.58 115, 0 105.42, 0 86.25 M28.75 115 C9.58 115, 0 105.42, 0 86.25 M0 86.25 C0 70.89, 0 55.53, 0 28.75 M0 86.25 C0 70.61, 0 54.98, 0 28.75 M0 28.75 C0 9.58, 9.58 0, 28.75 0 M0 28.75 C0 9.58, 9.58 0, 28.75 0" stroke="#000000" stroke-width="1" fill="none"></path></g><g transform="translate(22.182682905335128 367.38424815799755) rotate(0 108.14997863769531 35)"><text x="108.14997863769531" y="0" font-family="Virgil, Segoe UI Emoji" font-size="28px" fill="#000000" text-anchor="middle" style="white-space: pre;" direction="ltr" dominant-baseline="text-before-edge">用户输入</text><text x="108.14997863769531" y="35" font-family="Virgil, Segoe UI Emoji" font-size="28px" fill="#000000" text-anchor="middle" style="white-space: pre;" direction="ltr" dominant-baseline="text-before-edge">（GPT-WebUI）</text></g><g stroke-linecap="round" transform="translate(426.5857242800927 40.24623970004791) rotate(0 104.5 104)"><path d="M7.86 8.16 C7.86 8.16, 7.86 8.16, 7.86 8.16 M7.86 8.16 C7.86 8.16, 7.86 8.16, 7.86 8.16 M3.66 19.09 C8.98 12.97, 14.29 6.86, 18.1 2.48 M3.66 19.09 C7.96 14.14, 12.26 9.19, 18.1 2.48 M2.75 26.24 C8.72 19.36, 14.7 12.49, 25.05 0.58 M2.75 26.24 C8.56 19.55, 14.37 12.87, 25.05 0.58 M2.48 32.64 C9.36 24.72, 16.24 16.81, 30.7 0.18 M2.48 32.64 C11.69 22.05, 20.89 11.47, 30.7 0.18 M2.88 38.28 C11.94 27.85, 21 17.43, 34.37 2.05 M2.88 38.28 C10.16 29.91, 17.43 21.54, 34.37 2.05 M2.62 44.68 C14.45 31.07, 26.28 17.46, 39.36 2.41 M2.62 44.68 C10.71 35.37, 18.81 26.05, 39.36 2.41 M2.36 51.07 C14.98 36.56, 27.6 22.04, 45 2.02 M2.36 51.07 C10.91 41.23, 19.47 31.39, 45 2.02 M2.75 56.72 C20.85 35.9, 38.95 15.07, 49.99 2.38 M2.75 56.72 C21.36 35.31, 39.97 13.9, 49.99 2.38 M2.49 63.11 C17.28 46.1, 32.07 29.08, 55.63 1.98 M2.49 63.11 C17.9 45.39, 33.31 27.66, 55.63 1.98 M2.23 69.51 C25.22 43.06, 48.22 16.61, 60.62 2.34 M2.23 69.51 C19.74 49.37, 37.25 29.22, 60.62 2.34 M2.62 75.16 C25.33 49.03, 48.04 22.91, 66.26 1.95 M2.62 75.16 C22.28 52.54, 41.94 29.92, 66.26 1.95 M2.36 81.55 C16.56 65.21, 30.77 48.88, 71.25 2.31 M2.36 81.55 C25.09 55.41, 47.82 29.26, 71.25 2.31 M2.76 87.2 C24.2 62.53, 45.63 37.87, 76.89 1.91 M2.76 87.2 C21.75 65.34, 40.75 43.49, 76.89 1.91 M2.49 93.59 C23.02 69.98, 43.54 46.37, 81.88 2.27 M2.49 93.59 C27.5 64.83, 52.5 36.07, 81.88 2.27 M2.23 99.99 C33.72 63.77, 65.2 27.55, 87.52 1.88 M2.23 99.99 C20.99 78.42, 39.74 56.84, 87.52 1.88 M2.63 105.64 C27.35 77.19, 52.08 48.75, 92.51 2.24 M2.63 105.64 C22.84 82.38, 43.06 59.13, 92.51 2.24 M2.37 112.03 C33.63 76.07, 64.89 40.11, 98.15 1.85 M2.37 112.03 C28.88 81.53, 55.4 51.02, 98.15 1.85 M2.1 118.43 C39.08 75.9, 76.05 33.36, 103.14 2.21 M2.1 118.43 C29.26 87.19, 56.42 55.95, 103.14 2.21 M2.5 124.07 C26.57 96.38, 50.64 68.7, 108.78 1.81 M2.5 124.07 C44.28 76.01, 86.07 27.94, 108.78 1.81 M2.24 130.47 C38.73 88.49, 75.23 46.51, 113.77 2.17 M2.24 130.47 C46.26 79.83, 90.28 29.19, 113.77 2.17 M1.98 136.87 C45.54 86.76, 89.1 36.64, 119.41 1.78 M1.98 136.87 C40.01 93.12, 78.04 49.36, 119.41 1.78 M2.37 142.51 C43.97 94.66, 85.56 46.81, 124.4 2.14 M2.37 142.51 C49.93 87.8, 97.49 33.09, 124.4 2.14 M2.11 148.91 C52.94 90.44, 103.77 31.96, 130.04 1.74 M2.11 148.91 C42.18 102.82, 82.25 56.72, 130.04 1.74 M2.5 154.55 C38.93 112.65, 75.35 70.75, 135.03 2.1 M2.5 154.55 C52.88 96.6, 103.26 38.65, 135.03 2.1 M2.24 160.95 C54.7 100.6, 107.16 40.25, 140.67 1.71 M2.24 160.95 C56.84 98.15, 111.43 35.34, 140.67 1.71 M1.98 167.35 C57.02 104.04, 112.06 40.72, 145.66 2.07 M1.98 167.35 C49.55 112.62, 97.13 57.9, 145.66 2.07 M2.38 172.99 C50.6 117.51, 98.83 62.04, 150.65 2.43 M2.38 172.99 C45.33 123.58, 88.28 74.17, 150.65 2.43 M2.77 178.64 C34.29 142.38, 65.81 106.12, 156.29 2.03 M2.77 178.64 C56.04 117.35, 109.32 56.07, 156.29 2.03 M2.51 185.03 C47.2 133.62, 91.89 82.22, 161.28 2.39 M2.51 185.03 C51.8 128.33, 101.1 71.62, 161.28 2.39 M2.9 190.68 C46.76 140.23, 90.61 89.78, 166.92 2 M2.9 190.68 C63.79 120.63, 124.68 50.59, 166.92 2 M4.61 194.81 C42.9 150.77, 81.18 106.73, 171.91 2.36 M4.61 194.81 C47.63 145.32, 90.66 95.83, 171.91 2.36 M6.97 198.19 C72.2 123.16, 137.42 48.13, 178.2 1.21 M6.97 198.19 C55.98 141.82, 104.98 85.44, 178.2 1.21 M9.34 201.57 C76.19 124.66, 143.04 47.76, 183.19 1.57 M9.34 201.57 C64.83 137.72, 120.33 73.88, 183.19 1.57 M13.01 203.44 C72.97 134.46, 132.93 65.49, 187.52 2.68 M13.01 203.44 C50.25 160.6, 87.49 117.76, 187.52 2.68 M16.69 205.31 C69.72 144.3, 122.75 83.29, 192.51 3.04 M16.69 205.31 C82.65 129.42, 148.62 53.54, 192.51 3.04 M19.7 207.93 C62.03 159.24, 104.35 110.56, 196.84 4.16 M19.7 207.93 C57.51 164.44, 95.32 120.94, 196.84 4.16 M24.69 208.29 C89.36 133.9, 154.03 59.5, 199.86 6.78 M24.69 208.29 C75.96 149.32, 127.22 90.34, 199.86 6.78 M30.33 207.9 C88.39 141.11, 146.45 74.32, 202.88 9.41 M30.33 207.9 C96.93 131.29, 163.53 54.68, 202.88 9.41 M34.01 209.77 C87.46 148.27, 140.92 86.78, 205.24 12.79 M34.01 209.77 C73.11 164.79, 112.2 119.82, 205.24 12.79 M39 210.13 C104.78 134.45, 170.57 58.77, 206.95 16.92 M39 210.13 C101.08 138.71, 163.16 67.29, 206.95 16.92 M44.64 209.73 C92.64 154.51, 140.64 99.29, 209.31 20.3 M44.64 209.73 C98.63 147.62, 152.63 85.51, 209.31 20.3 M49.63 210.09 C105 146.39, 160.37 82.69, 209.71 25.94 M49.63 210.09 C88.4 165.48, 127.18 120.88, 209.71 25.94 M55.27 209.7 C86.72 173.51, 118.18 137.33, 209.44 32.34 M55.27 209.7 C90.14 169.59, 125 129.48, 209.44 32.34 M60.26 210.06 C93.99 171.25, 127.72 132.45, 209.18 38.74 M60.26 210.06 C93.1 172.27, 125.95 134.48, 209.18 38.74 M65.9 209.66 C120.86 146.44, 175.82 83.21, 209.58 44.38 M65.9 209.66 C115.75 152.32, 165.6 94.97, 209.58 44.38 M70.89 210.02 C105.03 170.74, 139.18 131.46, 209.32 50.78 M70.89 210.02 C120.79 152.61, 170.7 95.2, 209.32 50.78 M76.53 209.63 C115.92 164.32, 155.3 119.01, 209.71 56.42 M76.53 209.63 C103.6 178.49, 130.67 147.35, 209.71 56.42 M81.52 209.99 C120.62 165.01, 159.72 120.03, 209.45 62.82 M81.52 209.99 C114.4 172.16, 147.29 134.33, 209.45 62.82 M87.16 209.59 C117.46 174.74, 147.76 139.88, 209.19 69.22 M87.16 209.59 C123.4 167.91, 159.64 126.22, 209.19 69.22 M92.15 209.95 C126.03 170.97, 159.92 131.99, 209.58 74.86 M92.15 209.95 C132.56 163.46, 172.98 116.97, 209.58 74.86 M97.79 209.56 C129.12 173.52, 160.44 137.49, 209.32 81.26 M97.79 209.56 C122.23 181.44, 146.68 153.32, 209.32 81.26 M102.78 209.92 C141.96 164.84, 181.15 119.76, 209.71 86.9 M102.78 209.92 C145.01 161.34, 187.24 112.75, 209.71 86.9 M108.42 209.52 C135.69 178.15, 162.96 146.78, 209.45 93.3 M108.42 209.52 C143.78 168.85, 179.13 128.18, 209.45 93.3 M113.41 209.88 C141.79 177.23, 170.18 144.58, 209.19 99.7 M113.41 209.88 C134.62 185.48, 155.83 161.08, 209.19 99.7 M119.05 209.49 C139.69 185.75, 160.33 162, 209.59 105.34 M119.05 209.49 C151.51 172.15, 183.96 134.82, 209.59 105.34 M124.04 209.85 C151.43 178.34, 178.83 146.82, 209.33 111.74 M124.04 209.85 C156.02 173.06, 188 136.27, 209.33 111.74 M129.68 209.46 C145.96 190.73, 162.24 172, 209.72 117.38 M129.68 209.46 C153.93 181.56, 178.19 153.66, 209.72 117.38 M134.67 209.82 C154.85 186.6, 175.04 163.38, 209.46 123.78 M134.67 209.82 C153.05 188.67, 171.43 167.53, 209.46 123.78 M140.31 209.42 C166.53 179.26, 192.75 149.1, 209.2 130.18 M140.31 209.42 C163.1 183.21, 185.88 156.99, 209.2 130.18 M145.3 209.78 C161.83 190.76, 178.37 171.73, 209.59 135.82 M145.3 209.78 C168.64 182.93, 191.99 156.07, 209.59 135.82 M150.94 209.39 C173.12 183.87, 195.3 158.36, 209.33 142.22 M150.94 209.39 C173.02 183.98, 195.11 158.58, 209.33 142.22 M155.93 209.75 C176.58 185.98, 197.24 162.22, 209.72 147.86 M155.93 209.75 C171.82 191.47, 187.71 173.19, 209.72 147.86 M160.91 210.11 C178.26 190.15, 195.61 170.19, 209.46 154.26 M160.91 210.11 C174.05 194.99, 187.19 179.88, 209.46 154.26 M166.56 209.71 C176.66 198.1, 186.75 186.48, 209.2 160.66 M166.56 209.71 C181.48 192.54, 196.41 175.37, 209.2 160.66 M171.54 210.07 C183.16 196.71, 194.77 183.35, 209.6 166.3 M171.54 210.07 C180.01 200.33, 188.48 190.59, 209.6 166.3 M177.84 208.92 C190.07 194.85, 202.3 180.78, 209.33 172.7 M177.84 208.92 C186.46 199.01, 195.07 189.1, 209.33 172.7 M183.49 208.53 C192.95 197.65, 202.41 186.76, 210.39 177.59 M183.49 208.53 C192.57 198.08, 201.65 187.64, 210.39 177.59 M187.16 210.4 C193.79 202.77, 200.42 195.14, 209.47 184.74 M187.16 210.4 C195 201.38, 202.85 192.35, 209.47 184.74" stroke="#fab005" stroke-width="0.5" fill="none"></path><path d="M32 0 M32 0 C69.8 0, 107.6 0, 177 0 M32 0 C76.7 0, 121.39 0, 177 0 M177 0 C198.33 0, 209 10.67, 209 32 M177 0 C198.33 0, 209 10.67, 209 32 M209 32 C209 74.97, 209 117.94, 209 176 M209 32 C209 67.87, 209 103.74, 209 176 M209 176 C209 197.33, 198.33 208, 177 208 M209 176 C209 197.33, 198.33 208, 177 208 M177 208 C133.89 208, 90.79 208, 32 208 M177 208 C141.59 208, 106.18 208, 32 208 M32 208 C10.67 208, 0 197.33, 0 176 M32 208 C10.67 208, 0 197.33, 0 176 M0 176 C0 129.81, 0 83.63, 0 32 M0 176 C0 143.04, 0 110.07, 0 32 M0 32 C0 10.67, 10.67 0, 32 0 M0 32 C0 10.67, 10.67 0, 32 0" stroke="#000000" stroke-width="1" fill="none"></path></g><g transform="translate(458.46775095245596 109.24623970004791) rotate(0 72.61797332763672 35)"><text x="72.61797332763672" y="0" font-family="Virgil, Segoe UI Emoji" font-size="28px" fill="#000000" text-anchor="middle" style="white-space: pre;" direction="ltr" dominant-baseline="text-before-edge">OpenAI</text><text x="72.61797332763672" y="35" font-family="Virgil, Segoe UI Emoji" font-size="28px" fill="#000000" text-anchor="middle" style="white-space: pre;" direction="ltr" dominant-baseline="text-before-edge"> Embedding</text></g><g stroke-linecap="round"><g transform="translate(232.4351083923478 71.98633507172667) rotate(0 91.34703476750926 0.8792608306433323)"><path d="M0.07 -0.82 C30.93 -0.54, 153.46 2.28, 184.04 2.58 M-1.35 1.37 C29.52 1.2, 152.79 0.67, 183.52 0.73" stroke="#000000" stroke-width="2" fill="none"></path></g><g transform="translate(232.4351083923478 71.98633507172667) rotate(0 91.34703476750926 0.8792608306433323)"><path d="M153.99 12.4 C162.02 9.5, 165.21 5.42, 183.03 1.57 M156.1 10.44 C164.92 6.22, 176.2 3.72, 182.73 0.09" stroke="#000000" stroke-width="2" fill="none"></path></g><g transform="translate(232.4351083923478 71.98633507172667) rotate(0 91.34703476750926 0.8792608306433323)"><path d="M153.95 -8.12 C162.15 -6.75, 165.35 -6.56, 183.03 1.57 M156.07 -10.08 C165.03 -6.9, 176.32 -1.99, 182.73 0.09" stroke="#000000" stroke-width="2" fill="none"></path></g></g><mask></mask><g stroke-linecap="round"><g transform="translate(116.36439141704659 330.2947626939335) rotate(0 150.38942935951815 -55.66795587292572)"><path d="M-0.89 -0.76 C12.51 -15.65, 29.41 -70.12, 79.84 -88.79 C130.26 -107.47, 264.79 -108.9, 301.67 -112.79 M0.84 1.45 C14.1 -13.35, 28.73 -68.86, 78.73 -87.67 C128.73 -106.49, 263.8 -107.01, 300.86 -111.45" stroke="#000000" stroke-width="2" fill="none"></path></g><g transform="translate(116.36439141704659 330.2947626939335) rotate(0 150.38942935951815 -55.66795587292572)"><path d="M272.12 -99.9 C278.98 -102.39, 287.34 -106.31, 302.03 -111.07 M274.29 -100.22 C284.03 -104.48, 295.05 -107.82, 301.74 -112.05" stroke="#000000" stroke-width="2" fill="none"></path></g><g transform="translate(116.36439141704659 330.2947626939335) rotate(0 150.38942935951815 -55.66795587292572)"><path d="M270.8 -120.38 C278.08 -117.66, 286.78 -116.39, 302.03 -111.07 M272.97 -120.7 C283.23 -117.16, 294.76 -112.72, 301.74 -112.05" stroke="#000000" stroke-width="2" fill="none"></path></g></g><mask></mask><g stroke-linecap="round"><g transform="translate(652.4617834256884 76.08880069619664) rotate(0 87.83431388721579 -1.5543908803133064)"><path d="M0.69 -1.08 C29.59 -1.34, 144.72 -1.98, 173.81 -2.2 M-0.41 0.97 C28.84 0.4, 146.88 -3.76, 176.07 -4.08" stroke="#000000" stroke-width="2" fill="none"></path></g><g transform="translate(652.4617834256884 76.08880069619664) rotate(0 87.83431388721579 -1.5543908803133064)"><path d="M146.35 5.46 C158.26 4.03, 167.23 -2.51, 174.29 -4.13 M148.11 7.32 C155.61 3.77, 162.17 1.18, 175.84 -4.15" stroke="#000000" stroke-width="2" fill="none"></path></g><g transform="translate(652.4617834256884 76.08880069619664) rotate(0 87.83431388721579 -1.5543908803133064)"><path d="M145.85 -15.06 C157.82 -9.66, 166.96 -9.36, 174.29 -4.13 M147.61 -13.2 C155.36 -11.66, 162.05 -9.16, 175.84 -4.15" stroke="#000000" stroke-width="2" fill="none"></path></g></g><mask></mask><g transform="translate(276.38532405330545 10) rotate(0 45.44999694824219 25)"><text x="45.44999694824219" y="0" font-family="Virgil, Segoe UI Emoji" font-size="20px" fill="#000000" text-anchor="middle" style="white-space: pre;" direction="ltr" dominant-baseline="text-before-edge">1.文档数据</text><text x="45.44999694824219" y="25" font-family="Virgil, Segoe UI Emoji" font-size="20px" fill="#000000" text-anchor="middle" style="white-space: pre;" direction="ltr" dominant-baseline="text-before-edge">向量化</text></g><g transform="translate(705.4443370018961 37.54675851244713) rotate(0 29.85999298095703 12.5)"><text x="0" y="0" font-family="Virgil, Segoe UI Emoji" font-size="20px" fill="#000000" text-anchor="start" style="white-space: pre;" direction="ltr" dominant-baseline="text-before-edge">2.插入</text></g><g transform="translate(239.12841752669294 164.36434581680265) rotate(0 49.54999542236328 25)"><text x="49.54999542236328" y="0" font-family="Virgil, Segoe UI Emoji" font-size="20px" fill="#000000" text-anchor="middle" style="white-space: pre;" direction="ltr" dominant-baseline="text-before-edge">3.查询数据</text><text x="49.54999542236328" y="25" font-family="Virgil, Segoe UI Emoji" font-size="20px" fill="#000000" text-anchor="middle" style="white-space: pre;" direction="ltr" dominant-baseline="text-before-edge">向量化</text></g><g stroke-linecap="round"><g transform="translate(660.2824678694682 208.0802724912224) rotate(0 84.74591941964934 -1.2408783445899587)"><path d="M0.92 -0.11 C29.29 -0.51, 141.8 -2.12, 169.55 -2.37 M-0.05 -1.21 C28.32 -1.42, 140.89 -0.45, 169.2 -0.85" stroke="#000000" stroke-width="2" fill="none"></path></g><g transform="translate(660.2824678694682 208.0802724912224) rotate(0 84.74591941964934 -1.2408783445899587)"><path d="M140.84 11.36 C147.78 5.11, 155.81 6.18, 170.78 -0.17 M141.93 9.79 C149.41 6.26, 157.14 4.35, 169.62 -0.77" stroke="#000000" stroke-width="2" fill="none"></path></g><g transform="translate(660.2824678694682 208.0802724912224) rotate(0 84.74591941964934 -1.2408783445899587)"><path d="M140.81 -9.16 C147.77 -10.44, 155.8 -4.4, 170.78 -0.17 M141.9 -10.73 C149.2 -8.77, 156.94 -5.2, 169.62 -0.77" stroke="#000000" stroke-width="2" fill="none"></path></g></g><mask></mask><g transform="translate(665.7781212367596 137.821750882853) rotate(0 79.1399917602539 25)"><text x="79.1399917602539" y="0" font-family="Virgil, Segoe UI Emoji" font-size="20px" fill="#000000" text-anchor="middle" style="white-space: pre;" direction="ltr" dominant-baseline="text-before-edge"></text><text x="79.1399917602539" y="25" font-family="Virgil, Segoe UI Emoji" font-size="20px" fill="#000000" text-anchor="middle" style="white-space: pre;" direction="ltr" dominant-baseline="text-before-edge">4.余弦相似度对比</text></g><g stroke-linecap="round" transform="translate(431.73604908281357 321.8385141910448) rotate(0 102.5 75)"><path d="M7.86 8.16 C7.86 8.16, 7.86 8.16, 7.86 8.16 M7.86 8.16 C7.86 8.16, 7.86 8.16, 7.86 8.16 M3.66 19.09 C6.93 15.32, 10.21 11.56, 18.1 2.48 M3.66 19.09 C8.94 13.01, 14.22 6.94, 18.1 2.48 M2.75 26.24 C9.93 17.98, 17.11 9.72, 25.05 0.58 M2.75 26.24 C7.26 21.04, 11.78 15.85, 25.05 0.58 M2.48 32.64 C13.49 19.98, 24.5 7.31, 30.7 0.18 M2.48 32.64 C11.21 22.6, 19.93 12.57, 30.7 0.18 M2.88 38.28 C14.97 24.37, 27.05 10.47, 34.37 2.05 M2.88 38.28 C12.62 27.08, 22.35 15.88, 34.37 2.05 M2.62 44.68 C11.98 33.91, 21.34 23.14, 39.36 2.41 M2.62 44.68 C14.1 31.47, 25.57 18.27, 39.36 2.41 M2.36 51.07 C11.19 40.91, 20.02 30.75, 45 2.02 M2.36 51.07 C11.41 40.66, 20.46 30.25, 45 2.02 M2.75 56.72 C14.59 43.1, 26.43 29.48, 49.99 2.38 M2.75 56.72 C16.09 41.37, 29.44 26.02, 49.99 2.38 M2.49 63.11 C15.98 47.6, 29.47 32.08, 55.63 1.98 M2.49 63.11 C17.06 46.36, 31.62 29.6, 55.63 1.98 M2.23 69.51 C19.57 49.57, 36.91 29.62, 60.62 2.34 M2.23 69.51 C14.63 55.25, 27.03 40.99, 60.62 2.34 M2.62 75.16 C23.32 51.35, 44.01 27.54, 66.26 1.95 M2.62 75.16 C21.29 53.69, 39.95 32.22, 66.26 1.95 M2.36 81.55 C23.16 57.63, 43.95 33.71, 71.25 2.31 M2.36 81.55 C21.71 59.29, 41.06 37.04, 71.25 2.31 M2.1 87.95 C21.65 65.46, 41.21 42.96, 76.89 1.91 M2.1 87.95 C17.36 70.4, 32.61 52.85, 76.89 1.91 M2.49 93.59 C23.35 69.6, 44.21 45.61, 81.88 2.27 M2.49 93.59 C30.51 61.37, 58.53 29.14, 81.88 2.27 M2.23 99.99 C22.87 76.26, 43.5 52.52, 87.52 1.88 M2.23 99.99 C34.35 63.04, 66.47 26.1, 87.52 1.88 M1.97 106.39 C35.09 68.29, 68.22 30.18, 92.51 2.24 M1.97 106.39 C27.25 77.31, 52.53 48.23, 92.51 2.24 M2.37 112.03 C29.67 80.63, 56.96 49.23, 98.15 1.85 M2.37 112.03 C32.76 77.07, 63.15 42.11, 98.15 1.85 M1.45 119.19 C30.6 85.65, 59.75 52.11, 103.14 2.21 M1.45 119.19 C41.76 72.81, 82.08 26.43, 103.14 2.21 M1.19 125.58 C38.64 82.5, 76.1 39.41, 108.78 1.81 M1.19 125.58 C40.81 80, 80.44 34.42, 108.78 1.81 M2.24 130.47 C34.54 93.31, 66.85 56.14, 113.77 2.17 M2.24 130.47 C27.58 101.31, 52.93 72.16, 113.77 2.17 M4.6 133.85 C30.75 103.76, 56.91 73.68, 119.41 1.78 M4.6 133.85 C28.44 106.43, 52.28 79.01, 119.41 1.78 M5.65 138.74 C44.64 93.88, 83.64 49.03, 124.4 2.14 M5.65 138.74 C50.8 86.8, 95.95 34.86, 124.4 2.14 M8.01 142.12 C39.69 105.68, 71.37 69.23, 130.04 1.74 M8.01 142.12 C50.65 93.07, 93.28 44.03, 130.04 1.74 M11.03 144.74 C53.86 95.48, 96.68 46.21, 135.03 2.1 M11.03 144.74 C42.01 109.11, 72.99 73.47, 135.03 2.1 M14.05 147.37 C41.68 115.59, 69.3 83.81, 140.67 1.71 M14.05 147.37 C44.89 111.9, 75.72 76.43, 140.67 1.71 M18.38 148.48 C65.77 93.96, 113.17 39.44, 145.66 2.07 M18.38 148.48 C58.67 102.14, 98.96 55.79, 145.66 2.07 M22.71 149.6 C50.5 117.63, 78.29 85.67, 150.65 2.43 M22.71 149.6 C70.81 94.27, 118.91 38.94, 150.65 2.43 M26.39 151.47 C56.27 117.09, 86.15 82.71, 156.29 2.03 M26.39 151.47 C58.44 114.6, 90.49 77.73, 156.29 2.03 M32.69 150.32 C59.62 119.34, 86.55 88.35, 161.28 2.39 M32.69 150.32 C80.08 95.8, 127.47 41.29, 161.28 2.39 M37.67 150.68 C67.17 116.74, 96.67 82.81, 166.92 2 M37.67 150.68 C88.43 92.29, 139.18 33.9, 166.92 2 M43.32 150.28 C80.56 107.44, 117.81 64.59, 173.22 0.85 M43.32 150.28 C79.57 108.58, 115.81 66.88, 173.22 0.85 M48.3 150.64 C83 110.73, 117.7 70.81, 178.86 0.45 M48.3 150.64 C86.52 106.68, 124.74 62.71, 178.86 0.45 M53.95 150.25 C102.8 94.05, 151.65 37.85, 182.54 2.32 M53.95 150.25 C92.68 105.69, 131.42 61.13, 182.54 2.32 M58.94 150.61 C101.44 101.71, 143.95 52.81, 187.52 2.68 M58.94 150.61 C106.65 95.72, 154.36 40.84, 187.52 2.68 M64.58 150.21 C110.03 97.92, 155.49 45.63, 191.2 4.55 M64.58 150.21 C98.1 111.65, 131.62 73.09, 191.2 4.55 M69.57 150.57 C119.64 92.97, 169.71 35.37, 194.87 6.42 M69.57 150.57 C99.35 116.31, 129.14 82.04, 194.87 6.42 M75.21 150.18 C116.05 103.19, 156.9 56.21, 197.89 9.05 M75.21 150.18 C116.33 102.88, 157.44 55.58, 197.89 9.05 M80.2 150.54 C120.88 103.73, 161.57 56.93, 200.25 12.43 M80.2 150.54 C126.88 96.84, 173.56 43.13, 200.25 12.43 M85.84 150.14 C126.92 102.89, 168 55.63, 203.27 15.05 M85.84 150.14 C122.72 107.72, 159.6 65.3, 203.27 15.05 M90.83 150.5 C114.07 123.77, 137.31 97.03, 204.98 19.18 M90.83 150.5 C125.8 110.27, 160.78 70.03, 204.98 19.18 M96.47 150.11 C128.79 112.93, 161.11 75.74, 205.37 24.83 M96.47 150.11 C133.37 107.66, 170.28 65.2, 205.37 24.83 M101.46 150.47 C136.7 109.93, 171.94 69.39, 205.77 30.47 M101.46 150.47 C138.84 107.46, 176.23 64.46, 205.77 30.47 M106.44 150.83 C126.65 127.58, 146.86 104.33, 207.48 34.6 M106.44 150.83 C145.14 106.31, 183.84 61.79, 207.48 34.6 M112.09 150.43 C138.41 120.15, 164.74 89.87, 207.87 40.25 M112.09 150.43 C140.69 117.53, 169.3 84.62, 207.87 40.25 M117.07 150.8 C146.48 116.96, 175.89 83.13, 207.61 46.65 M117.07 150.8 C149.3 113.73, 181.52 76.66, 207.61 46.65 M122.72 150.4 C142.77 127.33, 162.82 104.27, 207.35 53.04 M122.72 150.4 C153.78 114.67, 184.84 78.93, 207.35 53.04 M127.7 150.76 C149.75 125.4, 171.8 100.03, 207.74 58.69 M127.7 150.76 C143.93 132.09, 160.16 113.42, 207.74 58.69 M133.35 150.37 C150.8 130.29, 168.25 110.21, 207.48 65.08 M133.35 150.37 C162.2 117.17, 191.06 83.97, 207.48 65.08 M138.33 150.73 C158.68 127.32, 179.03 103.91, 207.22 71.48 M138.33 150.73 C152.44 134.49, 166.56 118.26, 207.22 71.48 M143.98 150.33 C167.57 123.19, 191.16 96.05, 207.61 77.12 M143.98 150.33 C161.61 130.05, 179.24 109.77, 207.61 77.12 M148.96 150.69 C170.39 126.04, 191.81 101.4, 207.35 83.52 M148.96 150.69 C165.27 131.93, 181.58 113.17, 207.35 83.52 M154.61 150.3 C172.05 130.23, 189.5 110.16, 207.09 89.92 M154.61 150.3 C171.82 130.49, 189.04 110.69, 207.09 89.92 M159.59 150.66 C174.52 133.48, 189.45 116.31, 207.49 95.56 M159.59 150.66 C172.97 135.27, 186.34 119.89, 207.49 95.56 M165.24 150.26 C177.78 135.83, 190.33 121.39, 207.22 101.96 M165.24 150.26 C178.91 134.53, 192.59 118.79, 207.22 101.96 M170.22 150.62 C181.08 138.14, 191.93 125.65, 207.62 107.6 M170.22 150.62 C181.21 137.99, 192.19 125.35, 207.62 107.6 M174.55 151.74 C182.35 142.76, 190.16 133.79, 207.36 114 M174.55 151.74 C182.42 142.69, 190.28 133.64, 207.36 114 M181.51 149.83 C189.24 140.94, 196.97 132.04, 207.1 120.4 M181.51 149.83 C190.4 139.6, 199.3 129.37, 207.1 120.4 M187.81 148.68 C191.59 144.33, 195.37 139.98, 206.18 127.55 M187.81 148.68 C193.79 141.81, 199.76 134.93, 206.18 127.55" stroke="#fab005" stroke-width="0.5" fill="none"></path><path d="M32 0 M32 0 C72.36 0, 112.72 0, 173 0 M32 0 C74.58 0, 117.17 0, 173 0 M173 0 C194.33 0, 205 10.67, 205 32 M173 0 C194.33 0, 205 10.67, 205 32 M205 32 C205 61.34, 205 90.68, 205 118 M205 32 C205 54.65, 205 77.3, 205 118 M205 118 C205 139.33, 194.33 150, 173 150 M205 118 C205 139.33, 194.33 150, 173 150 M173 150 C141.2 150, 109.4 150, 32 150 M173 150 C142.12 150, 111.23 150, 32 150 M32 150 C10.67 150, 0 139.33, 0 118 M32 150 C10.67 150, 0 139.33, 0 118 M0 118 C0 94.73, 0 71.45, 0 32 M0 118 C0 97.64, 0 77.27, 0 32 M0 32 C0 10.67, 10.67 0, 32 0 M0 32 C0 10.67, 10.67 0, 32 0" stroke="#000000" stroke-width="1" fill="none"></path></g><g transform="translate(447.4780763655284 379.3385141910448) rotate(0 86.75797271728516 17.5)"><text x="86.75797271728516" y="0" font-family="Virgil, Segoe UI Emoji" font-size="28px" fill="#000000" text-anchor="middle" style="white-space: pre;" direction="ltr" dominant-baseline="text-before-edge">ChatGPT3.5</text></g><g stroke-linecap="round"><g transform="translate(827.040514847526 392.8942001619683) rotate(0 -92.71278306553381 0.5730126043066832)"><path d="M-0.17 0.6 C-31.05 0.4, -153.91 0.12, -184.56 -0.08 M-1.71 -0.13 C-32.78 0.36, -154.82 1.21, -185.26 1.27" stroke="#000000" stroke-width="2" fill="none"></path></g><g transform="translate(827.040514847526 392.8942001619683) rotate(0 -92.71278306553381 0.5730126043066832)"><path d="M-156.12 -8.34 C-167.84 -3.79, -178.94 -1.14, -183.57 0.6 M-157.44 -10.05 C-163.42 -6.02, -170.13 -4.92, -184.95 0.58" stroke="#000000" stroke-width="2" fill="none"></path></g><g transform="translate(827.040514847526 392.8942001619683) rotate(0 -92.71278306553381 0.5730126043066832)"><path d="M-156.01 12.18 C-167.97 9.27, -179.11 4.47, -183.57 0.6 M-157.34 10.48 C-163.35 9.77, -170.09 6.13, -184.95 0.58" stroke="#000000" stroke-width="2" fill="none"></path></g></g><mask></mask><g transform="translate(661.0606851291278 325.38976326459436) rotate(0 78.91999053955078 25)"><text x="78.91999053955078" y="0" font-family="Virgil, Segoe UI Emoji" font-size="20px" fill="#000000" text-anchor="middle" style="white-space: pre;" direction="ltr" dominant-baseline="text-before-edge">5.文档、用户提问</text><text x="78.91999053955078" y="25" font-family="Virgil, Segoe UI Emoji" font-size="20px" fill="#000000" text-anchor="middle" style="white-space: pre;" direction="ltr" dominant-baseline="text-before-edge">组成提示语</text></g><g stroke-linecap="round"><g transform="translate(418.67767178848555 402.7125966090615) rotate(0 -79.7112745702172 0.2138119434840462)"><path d="M-0.35 0.27 C-26.96 0.39, -133.33 -0.29, -159.85 -0.44 M1.66 -0.63 C-25.13 -0.21, -134.09 0.86, -161.09 1.06" stroke="#000000" stroke-width="2" fill="none"></path></g><g transform="translate(418.67767178848555 402.7125966090615) rotate(0 -79.7112745702172 0.2138119434840462)"><path d="M-132.54 -10.36 C-141.1 -6.83, -149.3 -3.01, -162.35 0.53 M-133.21 -9.76 C-139.58 -7.51, -147.25 -4.49, -161.65 1.16" stroke="#000000" stroke-width="2" fill="none"></path></g><g transform="translate(418.67767178848555 402.7125966090615) rotate(0 -79.7112745702172 0.2138119434840462)"><path d="M-132.36 10.16 C-140.77 7.92, -149.01 5.98, -162.35 0.53 M-133.03 10.77 C-139.35 7.87, -147.06 5.74, -161.65 1.16" stroke="#000000" stroke-width="2" fill="none"></path></g></g><mask></mask><g transform="translate(303.2886936743058 345.4237694554649) rotate(0 49.139991760253906 12.5)"><text x="49.139991760253906" y="0" font-family="Virgil, Segoe UI Emoji" font-size="20px" fill="#000000" text-anchor="middle" style="white-space: pre;" direction="ltr" dominant-baseline="text-before-edge">6.对话返回</text></g></svg>